<?xml version="1.0" encoding="UTF-8" standalone="no"?>
<!-- Created with Inkscape (http://www.inkscape.org/) -->

<svg
   width="147.96397mm"
   height="26.109318mm"
   viewBox="0 0 147.96397 26.109318"
   version="1.1"
   id="svg5"
   xml:space="preserve"
   xmlns="http://www.w3.org/2000/svg"
   xmlns:svg="http://www.w3.org/2000/svg"><defs
     id="defs2"><rect
       x="182.34218"
       y="60.034035"
       width="416.63486"
       height="97.219292"
       id="rect366" /><clipPath
       id="_clipPath_cZDHUNVPeB6g3e3JtjseAt7nTwBPWBxr"><rect
         width="1000"
         height="1000"
         id="rect132"
         x="0"
         y="0" /></clipPath></defs><g
     id="layer1"
     transform="translate(-21.425242,-12.759661)"><g
       id="g1225"><g
         aria-label="nyuad.space"
         transform="matrix(0.32217908,0,0,0.32217908,-5.5819592,-5.2290629)"
         id="text364"
         style="font-weight:bold;font-size:56px;font-family:monospace;-inkscape-font-specification:'monospace Bold';white-space:pre;shape-inside:url(#rect366);fill:#ffffff;stroke:#000000;stroke-width:1.00157"><g
           id="g567"><g
             style="isolation:isolate"
             id="g152"
             transform="matrix(0.08103977,0,0,0.08103977,83.826678,55.834553)"><g
               clip-path="url(#_clipPath_cZDHUNVPeB6g3e3JtjseAt7nTwBPWBxr)"
               id="g141"><rect
                 width="1000"
                 height="1000"
                 style="fill:#000000"
                 fill-opacity="0"
                 id="rect137"
                 x="0"
                 y="0" /><path
                 d="M 170.027,523.165 Q 117.335,576.428 66.613,638.339 46.75,573.658 46.75,500.613 v 0 0 q 0,-91.999 34.96,-173.572 v 0 0 q 34.959,-81.572 97.519,-144.745 v 0 0 q 62.56,-63.173 144.132,-99.36 v 0 0 Q 404.934,46.75 499.387,46.75 v 0 0 q 93.226,0 174.798,36.186 v 0 0 q 81.573,36.187 144.746,99.36 v 0 0 q 7.269,7.268 14.172,14.781 v 0 q -75.512,4.816 -148.273,21.71 -26.467,-18.343 -56.644,-31.585 v 0 0 Q 568.08,160.829 499.387,160.829 v 0 0 q -69.92,0 -130.026,26.987 v 0 0 q -60.106,26.986 -105.493,73.599 v 0 0 q -45.386,46.613 -69.919,108.559 v 0 0 Q 169.416,431.92 169.416,501.84 v 0 0 q 0,10.772 0.611,21.325 z M 401.894,824.15 q -25.253,51.181 -47.36,106.469 68.183,22.631 144.853,22.631 v 0 0 q 93.226,0 174.798,-34.96 v 0 0 q 81.573,-34.959 144.746,-96.906 v 0 0 q 63.173,-61.946 98.746,-144.132 v 0 0 Q 953.25,595.066 953.25,500.613 v 0 0 q 0,-91.999 -35.573,-173.572 v 0 0 q -3.982,-9.131 -8.31,-18.032 v 0 q -54.84,26.029 -105.445,57.588 0.454,1.073 0.902,2.151 v 0 0 q 25.76,61.946 25.76,131.865 v 0 0 q 0,71.146 -25.76,131.866 v 0 0 q -25.76,60.72 -69.919,107.333 v 0 0 q -44.16,46.612 -104.266,72.986 v 0 0 q -60.106,26.373 -128.799,26.373 v 0 0 q -52.767,0 -99.946,-15.021 z"
                 fill-rule="evenodd"
                 fill="#000000"
                 id="path139" /></g></g><path
             d="m 203.9018,81.26244 q 3.584,0 6.384,1.4 2.856,1.4 4.48,4.312 1.624,2.856 1.624,7.392 v 17.136 h -7 v -16.24 q 0,-3.976 -1.904,-5.936 -1.848,-1.96 -5.208,-1.96 -2.464,0 -4.368,1.008 -1.904,1.008 -2.968,3.024 -1.008,1.96 -1.008,4.984 v 15.12 h -7 v -29.904 h 6.664 v 8.064 l -1.176,-2.464 q 1.568,-2.856 4.536,-4.368 3.024,-1.568 6.944,-1.568 z"
             style="font-weight:600;font-family:Montserrat;-inkscape-font-specification:'Montserrat Semi-Bold';fill:#000000"
             id="path525" /><path
             d="m 227.19775,122.75844 q -2.184,0 -4.368,-0.728 -2.184,-0.728 -3.64,-2.016 l 2.8,-5.152 q 1.064,0.952 2.408,1.512 1.344,0.56 2.744,0.56 1.904,0 3.08,-0.952 1.176,-0.952 2.184,-3.192 l 1.736,-3.92 0.56,-0.84 11.312,-26.432 h 6.72 l -14,32.312 q -1.4,3.36 -3.136,5.32 -1.68,1.96 -3.808,2.744 -2.072,0.784 -4.592,0.784 z m 6.16,-10.192 -13.496,-30.968 h 7.28 l 10.976,25.816 z"
             style="font-weight:600;font-family:Montserrat;-inkscape-font-specification:'Montserrat Semi-Bold';fill:#000000"
             id="path527" /><path
             d="m 269.7577,111.89444 q -3.808,0 -6.72,-1.4 -2.912,-1.456 -4.536,-4.368 -1.624,-2.968 -1.624,-7.448 v -17.08 h 7 v 16.128 q 0,4.032 1.792,6.048 1.848,1.96 5.208,1.96 2.464,0 4.256,-1.008 1.848,-1.008 2.856,-3.024 1.064,-2.016 1.064,-4.984 v -15.12 h 7 v 29.904 h -6.664 v -8.064 l 1.176,2.464 q -1.512,2.912 -4.424,4.48 -2.912,1.512 -6.384,1.512 z"
             style="font-weight:600;font-family:Montserrat;-inkscape-font-specification:'Montserrat Semi-Bold';fill:#000000"
             id="path529" /><path
             d="m 313.66169,111.50244 v -6.048 l -0.392,-1.288 v -10.584 q 0,-3.08 -1.848,-4.76 -1.848,-1.736 -5.6,-1.736 -2.52,0 -4.984,0.784 -2.408,0.784 -4.088,2.184 l -2.744,-5.096 q 2.408,-1.848 5.712,-2.744 3.36,-0.952 6.944,-0.952 6.496,0 10.024,3.136 3.584,3.08 3.584,9.576 v 17.528 z m -9.408,0.392 q -3.36,0 -5.88,-1.12 -2.52,-1.176 -3.92,-3.192 -1.344,-2.072 -1.344,-4.648 0,-2.52 1.176,-4.536 1.232,-2.016 3.976,-3.192 2.744,-1.176 7.28,-1.176 h 8.68 v 4.648 h -8.176 q -3.584,0 -4.816,1.176 -1.232,1.12 -1.232,2.8 0,1.904 1.512,3.024 1.512,1.12 4.2,1.12 2.576,0 4.592,-1.176 2.072,-1.176 2.968,-3.472 l 1.176,4.2 q -1.008,2.632 -3.64,4.088 -2.576,1.456 -6.552,1.456 z"
             style="font-weight:600;font-family:Montserrat;-inkscape-font-specification:'Montserrat Semi-Bold';fill:#000000"
             id="path531" /><path
             d="m 341.95802,111.89444 q -4.312,0 -7.784,-1.904 -3.416,-1.96 -5.376,-5.376 -1.96,-3.416 -1.96,-8.064 0,-4.648 1.96,-8.064 1.96,-3.416 5.376,-5.32 3.472,-1.904 7.784,-1.904 3.752,0 6.72,1.68 2.968,1.624 4.704,4.984 1.736,3.36 1.736,8.624 0,5.208 -1.68,8.624 -1.68,3.36 -4.648,5.04 -2.968,1.68 -6.832,1.68 z m 0.84,-5.992 q 2.52,0 4.48,-1.12 2.016,-1.12 3.192,-3.248 1.232,-2.128 1.232,-4.984 0,-2.912 -1.232,-4.984 -1.176,-2.128 -3.192,-3.248 -1.96,-1.12 -4.48,-1.12 -2.52,0 -4.536,1.12 -1.96,1.12 -3.192,3.248 -1.176,2.072 -1.176,4.984 0,2.856 1.176,4.984 1.232,2.128 3.192,3.248 2.016,1.12 4.536,1.12 z m 9.072,5.6 v -7.056 l 0.28,-7.952 -0.56,-7.952 v -18.592 h 6.944 v 41.552 z"
             style="font-weight:600;font-family:Montserrat;-inkscape-font-specification:'Montserrat Semi-Bold';fill:#000000"
             id="path533" /><path
             d="m 370.01393,111.89444 q -1.904,0 -3.248,-1.288 -1.344,-1.344 -1.344,-3.36 0,-2.128 1.344,-3.36 1.344,-1.288 3.248,-1.288 1.904,0 3.248,1.288 1.344,1.232 1.344,3.36 0,2.016 -1.344,3.36 -1.344,1.288 -3.248,1.288 z"
             style="font-weight:600;font-family:Montserrat;-inkscape-font-specification:'Montserrat Semi-Bold';fill:#000000"
             id="path535" /><path
             d="m 390.6779,111.89444 q -3.752,0 -7.224,-0.952 -3.416,-1.008 -5.432,-2.408 l 2.688,-5.32 q 2.016,1.288 4.816,2.128 2.8,0.84 5.6,0.84 3.304,0 4.76,-0.896 1.512,-0.896 1.512,-2.408 0,-1.232 -1.008,-1.848 -1.008,-0.672 -2.632,-1.008 -1.624,-0.336 -3.64,-0.616 -1.96,-0.28 -3.976,-0.728 -1.96,-0.504 -3.584,-1.4 -1.624,-0.952 -2.632,-2.52 -1.008,-1.568 -1.008,-4.144 0,-2.856 1.624,-4.928 1.624,-2.128 4.536,-3.248 2.968,-1.176 7,-1.176 3.024,0 6.104,0.672 3.08,0.672 5.096,1.904 l -2.688,5.32 q -2.128,-1.288 -4.312,-1.736 -2.128,-0.504 -4.256,-0.504 -3.192,0 -4.76,0.952 -1.512,0.952 -1.512,2.408 0,1.344 1.008,2.016 1.008,0.672 2.632,1.064 1.624,0.392 3.584,0.672 2.016,0.224 3.976,0.728 1.96,0.504 3.584,1.4 1.68,0.84 2.688,2.408 1.008,1.568 1.008,4.088 0,2.8 -1.68,4.872 -1.624,2.072 -4.648,3.248 -3.024,1.12 -7.224,1.12 z"
             style="font-weight:600;font-family:Montserrat;-inkscape-font-specification:'Montserrat Semi-Bold';fill:#000000"
             id="path537" /><path
             d="m 426.85387,111.89444 q -3.64,0 -6.664,-1.68 -2.968,-1.68 -4.76,-5.04 -1.736,-3.416 -1.736,-8.624 0,-5.264 1.68,-8.624 1.736,-3.36 4.704,-4.984 2.968,-1.68 6.776,-1.68 4.424,0 7.784,1.904 3.416,1.904 5.376,5.32 2.016,3.416 2.016,8.064 0,4.648 -2.016,8.12 -1.96,3.416 -5.376,5.32 -3.36,1.904 -7.784,1.904 z m -16.576,10.472 v -40.768 h 6.664 v 7.056 l -0.224,7.952 0.56,7.952 v 17.808 z m 15.792,-16.464 q 2.52,0 4.48,-1.12 2.016,-1.12 3.192,-3.248 1.176,-2.128 1.176,-4.984 0,-2.912 -1.176,-4.984 -1.176,-2.128 -3.192,-3.248 -1.96,-1.12 -4.48,-1.12 -2.52,0 -4.536,1.12 -2.016,1.12 -3.192,3.248 -1.176,2.072 -1.176,4.984 0,2.856 1.176,4.984 1.176,2.128 3.192,3.248 2.016,1.12 4.536,1.12 z"
             style="font-weight:600;font-family:Montserrat;-inkscape-font-specification:'Montserrat Semi-Bold';fill:#000000"
             id="path539" /><path
             d="m 466.72389,111.50244 v -6.048 l -0.392,-1.288 v -10.584 q 0,-3.08 -1.848,-4.76 -1.848,-1.736 -5.6,-1.736 -2.52,0 -4.984,0.784 -2.408,0.784 -4.088,2.184 l -2.744,-5.096 q 2.408,-1.848 5.712,-2.744 3.36,-0.952 6.944,-0.952 6.496,0 10.024,3.136 3.584,3.08 3.584,9.576 v 17.528 z m -9.408,0.392 q -3.36,0 -5.88,-1.12 -2.52,-1.176 -3.92,-3.192 -1.344,-2.072 -1.344,-4.648 0,-2.52 1.176,-4.536 1.232,-2.016 3.976,-3.192 2.744,-1.176 7.28,-1.176 h 8.68 v 4.648 h -8.176 q -3.584,0 -4.816,1.176 -1.232,1.12 -1.232,2.8 0,1.904 1.512,3.024 1.512,1.12 4.2,1.12 2.576,0 4.592,-1.176 2.072,-1.176 2.968,-3.472 l 1.176,4.2 q -1.008,2.632 -3.64,4.088 -2.576,1.456 -6.552,1.456 z"
             style="font-weight:600;font-family:Montserrat;-inkscape-font-specification:'Montserrat Semi-Bold';fill:#000000"
             id="path541" /><path
             d="m 496.08422,111.89444 q -4.704,0 -8.4,-1.96 -3.64,-2.016 -5.712,-5.488 -2.072,-3.472 -2.072,-7.896 0,-4.48 2.072,-7.896 2.072,-3.472 5.712,-5.432 3.696,-1.96 8.4,-1.96 4.368,0 7.672,1.792 3.36,1.736 5.096,5.152 l -5.376,3.136 q -1.344,-2.128 -3.304,-3.136 -1.904,-1.008 -4.144,-1.008 -2.576,0 -4.648,1.12 -2.072,1.12 -3.248,3.248 -1.176,2.072 -1.176,4.984 0,2.912 1.176,5.04 1.176,2.072 3.248,3.192 2.072,1.12 4.648,1.12 2.24,0 4.144,-1.008 1.96,-1.008 3.304,-3.136 l 5.376,3.136 q -1.736,3.36 -5.096,5.208 -3.304,1.792 -7.672,1.792 z"
             style="font-weight:600;font-family:Montserrat;-inkscape-font-specification:'Montserrat Semi-Bold';fill:#000000"
             id="path543" /><path
             d="m 528.5299,111.89444 q -4.984,0 -8.736,-1.96 -3.696,-2.016 -5.768,-5.488 -2.016,-3.472 -2.016,-7.896 0,-4.48 1.96,-7.896 2.016,-3.472 5.488,-5.432 3.528,-1.96 8.008,-1.96 4.368,0 7.784,1.904 3.416,1.904 5.376,5.376 1.96,3.472 1.96,8.176 0,0.448 -0.056,1.008 0,0.56 -0.056,1.064 h -24.92 v -4.648 h 21.224 l -2.744,1.456 q 0.056,-2.576 -1.064,-4.536 -1.12,-1.96 -3.08,-3.08 -1.904,-1.12 -4.424,-1.12 -2.576,0 -4.536,1.12 -1.904,1.12 -3.024,3.136 -1.064,1.96 -1.064,4.648 v 1.12 q 0,2.688 1.232,4.76 1.232,2.072 3.472,3.192 2.24,1.12 5.152,1.12 2.52,0 4.536,-0.784 2.016,-0.784 3.584,-2.464 l 3.752,4.312 q -2.016,2.352 -5.096,3.64 -3.024,1.232 -6.944,1.232 z"
             style="font-weight:600;font-family:Montserrat;-inkscape-font-specification:'Montserrat Semi-Bold';fill:#000000"
             id="path545" /></g></g></g></g></svg>
