<?xml version="1.0" encoding="UTF-8"?>
<svg id="Layer_1" data-name="Layer 1" xmlns="http://www.w3.org/2000/svg" xmlns:xlink="http://www.w3.org/1999/xlink" viewBox="0 0 1165.09 484.61">
  <defs>
    <style>
      .cls-1 {
        fill: url(#Orange_Yellow_9-2);
      }

      .cls-2 {
        fill: url(#Orange_Yellow_9-4);
      }

      .cls-3 {
        fill: url(#Orange_Yellow_9-3);
      }

      .cls-4 {
        fill: url(#Orange_Yellow_9-8);
      }

      .cls-5 {
        fill: url(#Orange_Yellow_9-7);
      }

      .cls-6 {
        fill: url(#Orange_Yellow_9-6);
      }

      .cls-7 {
        fill: url(#Orange_Yellow_9-5);
      }

      .cls-8 {
        fill: url(#Orange_Yellow_9-9);
      }

      .cls-9 {
        fill: url(#Orange_Yellow_9-11);
      }

      .cls-10 {
        fill: url(#Orange_Yellow_9-12);
      }

      .cls-11 {
        fill: url(#Orange_Yellow_9-10);
      }

      .cls-12 {
        fill: url(#Orange_Yellow_10-3);
      }

      .cls-13 {
        fill: url(#Orange_Yellow_10-4);
      }

      .cls-14 {
        fill: url(#Orange_Yellow_10-2);
      }

      .cls-15 {
        fill: #0f2847;
      }

      .cls-16 {
        fill: url(#Orange_Yellow_9);
      }

      .cls-17 {
        fill: url(#Orange_Yellow_10);
      }
    </style>
    <linearGradient id="Orange_Yellow_10" data-name="Orange, Yellow 10" x1="-4.51" y1="502.49" x2="210.48" y2="309.8" gradientUnits="userSpaceOnUse">
      <stop offset="0" stop-color="#007a9c"/>
      <stop offset="0" stop-color="#007a9c"/>
      <stop offset=".28" stop-color="#007a9c"/>
      <stop offset=".67" stop-color="#007a9c"/>
      <stop offset=".89" stop-color="#007a9c"/>
      <stop offset="1" stop-color="#e83939"/>
    </linearGradient>
    <linearGradient id="Orange_Yellow_10-2" data-name="Orange, Yellow 10" x1="-28.46" y1="475.77" x2="186.53" y2="283.08" xlink:href="#Orange_Yellow_10"/>
    <linearGradient id="Orange_Yellow_9" data-name="Orange, Yellow 9" x1="699.78" y1="-41.62" x2="234.34" y2="48.17" gradientTransform="translate(61.92 873.39) rotate(-90.02) scale(1.51 1.31)" gradientUnits="userSpaceOnUse">
      <stop offset="0" stop-color="#0f2847"/>
      <stop offset="0" stop-color="#0f2847"/>
      <stop offset=".28" stop-color="#0f2847"/>
      <stop offset=".67" stop-color="#0f2847"/>
      <stop offset=".89" stop-color="#0f2847"/>
      <stop offset="1" stop-color="#e85039"/>
    </linearGradient>
    <linearGradient id="Orange_Yellow_9-2" data-name="Orange, Yellow 9" x1="707.08" y1="-3.76" x2="241.65" y2="86.03" xlink:href="#Orange_Yellow_9"/>
    <linearGradient id="Orange_Yellow_9-3" data-name="Orange, Yellow 9" x1="706.13" y1="-8.7" x2="240.7" y2="81.09" xlink:href="#Orange_Yellow_9"/>
    <linearGradient id="Orange_Yellow_10-3" data-name="Orange, Yellow 10" x1="-16.54" y1="489.07" x2="198.45" y2="296.39" xlink:href="#Orange_Yellow_10"/>
    <linearGradient id="Orange_Yellow_9-4" data-name="Orange, Yellow 9" x1="704.06" y1="-19.4" x2="238.63" y2="70.39" xlink:href="#Orange_Yellow_9"/>
    <linearGradient id="Orange_Yellow_9-5" data-name="Orange, Yellow 9" x1="57.82" y1="392.04" x2="-254.28" y2="441.48" gradientTransform="translate(-252.12 -101.14) rotate(-90.03) scale(1.63 .89) skewX(-.02)" xlink:href="#Orange_Yellow_9"/>
    <linearGradient id="Orange_Yellow_9-6" data-name="Orange, Yellow 9" x1="708.74" y1="4.86" x2="243.31" y2="94.65" xlink:href="#Orange_Yellow_9"/>
    <linearGradient id="Orange_Yellow_9-7" data-name="Orange, Yellow 9" x1="57.57" y1="390.45" x2="-254.53" y2="439.88" gradientTransform="translate(-252.12 -101.14) rotate(-90.03) scale(1.63 .89) skewX(-.02)" xlink:href="#Orange_Yellow_9"/>
    <linearGradient id="Orange_Yellow_9-8" data-name="Orange, Yellow 9" x1="198.69" y1="383.72" x2="98.44" y2="438.3" gradientTransform="matrix(1,0,0,1,0,0)" xlink:href="#Orange_Yellow_9"/>
    <linearGradient id="Orange_Yellow_9-9" data-name="Orange, Yellow 9" x1="702.77" y1="-26.14" x2="237.33" y2="63.66" xlink:href="#Orange_Yellow_9"/>
    <linearGradient id="Orange_Yellow_9-10" data-name="Orange, Yellow 9" x1="193.9" y1="374.91" x2="93.65" y2="429.5" gradientTransform="matrix(1,0,0,1,0,0)" xlink:href="#Orange_Yellow_9"/>
    <linearGradient id="Orange_Yellow_10-4" data-name="Orange, Yellow 10" x1="4.14" y1="512.15" x2="219.13" y2="319.46" xlink:href="#Orange_Yellow_10"/>
    <linearGradient id="Orange_Yellow_9-11" data-name="Orange, Yellow 9" x1="703.01" y1="-24.87" x2="237.58" y2="64.92" xlink:href="#Orange_Yellow_9"/>
    <linearGradient id="Orange_Yellow_9-12" data-name="Orange, Yellow 9" x1="189.34" y1="366.54" x2="89.09" y2="421.12" gradientTransform="matrix(1,0,0,1,0,0)" xlink:href="#Orange_Yellow_9"/>
  </defs>
  <path class="cls-15" d="M462.3,260.01c14.83-9.65,26.49-22.32,34.99-38.02,8.49-15.69,12.74-32.33,12.74-49.9s-4.68-34.78-14.04-50.76c-9.36-15.98-21.82-28.73-37.37-38.23-15.55-9.5-32.55-14.26-50.98-14.26h-137.38c-7.2,0-13.18,2.45-17.93,7.34-4.75,4.9-7.13,10.8-7.13,17.71v320.54h49.25V118.96h112.75c9.21,0,17.93,2.45,26.14,7.34,8.21,4.9,14.76,11.45,19.66,19.66,4.89,8.21,7.34,17.06,7.34,26.57,0,8.93-2.31,17.43-6.91,25.49-4.61,8.07-10.73,14.62-18.36,19.66-7.63,5.04-16.2,7.56-25.71,7.56h-69.98c-7.78,0-13.97,2.31-18.58,6.91s-6.91,10.37-6.91,17.28,2.3,13.25,6.91,19.01l123.55,146.02h61.34l-116.58-139.97h24.13c17.85,0,34.2-4.82,49.03-14.47Z"/>
  <path class="cls-15" d="M612.42,82.24c-15.27,8.93-27.36,20.95-36.29,36.07-8.93,15.12-13.39,31.61-13.39,49.46v147.74c0,17.86,4.46,34.34,13.39,49.46,8.92,15.12,21.02,27.15,36.29,36.07,15.26,8.93,31.97,13.39,50.11,13.39h148.18v-50.11h-148.61c-8.93,0-17.14-2.09-24.62-6.26-7.49-4.17-13.47-9.94-17.93-17.28-4.47-7.34-6.7-15.48-6.7-24.41v-149.47c0-8.92,2.23-17.06,6.7-24.41,4.46-7.34,10.37-13.1,17.71-17.28,7.34-4.17,15.62-6.26,24.84-6.26h148.61v-50.11h-148.18c-18.14,0-34.85,4.47-50.11,13.39Z"/>
  <rect class="cls-15" x="635.75" y="217.46" width="160.7" height="49.68"/>
  <path class="cls-15" d="M921.29,142.51c4.32-7.34,10.29-13.1,17.93-17.28,7.63-4.17,15.91-6.26,24.84-6.26h130.46v-50.11h-130.03c-18.14,0-34.85,4.47-50.11,13.39-15.27,8.93-27.36,20.95-36.29,36.07-8.93,15.12-13.39,31.61-13.39,49.46v147.74c0,17.86,4.46,34.34,13.39,49.46,8.92,15.12,21.02,27.15,36.29,36.07,15.26,8.93,31.97,13.39,50.11,13.39h130.03v-50.11h-130.46c-8.64,0-16.85-2.09-24.62-6.26-7.78-4.17-13.82-9.94-18.14-17.28-4.32-7.34-6.48-15.48-6.48-24.41v-149.47c0-8.92,2.16-17.06,6.48-24.41Z"/>
  <g>
    <polygon class="cls-17" points="185.2 341.19 152.72 315.98 152.78 403.21 185.2 378.05 185.2 341.19"/>
    <polygon class="cls-14" points="70.56 341.19 70.56 378.05 103.34 403.48 103.27 315.81 70.56 341.19"/>
    <path class="cls-16" d="M108.98,404.1h-4.84l-.8-.62v10.89h.03c0-.07.02-.13.05-.19l5.56-10.07Z"/>
    <path class="cls-1" d="M151.63,315.14l1.09.85-.12-166.07c-.33,53.53-11.22,96.48-24.64,96.47-13.53,0-24.55-43.65-24.79-97.78h-.01l.12,167.21.87-.67h47.49Z"/>
    <path class="cls-3" d="M147.15,404.1l5.56,10.07c.03.06.05.12.05.19h.02v-11.15s-1.16.9-1.16.9h-4.48Z"/>
    <path class="cls-12" d="M151.63,315.14h-47.49l-.87.67.06,87.67.8.62h4.84l6.59-11.93c.07-.13.2-.2.35-.2h24.29c.14,0,.28.08.35.2l6.59,11.93h4.48l1.15-.9-.06-87.22-1.09-.85Z"/>
    <path class="cls-2" d="M151.63,315.14h-47.49l-.87.67.06,87.67.8.62h4.84l6.59-11.93c.07-.13.2-.2.35-.2h24.29c.14,0,.28.08.35.2l6.59,11.93h4.48l1.15-.9-.06-87.22-1.09-.85Z"/>
    <path class="cls-7" d="M152.6,149.91c0-.92,0-1.85,0-2.78-.04-54.82-11.14-99.27-24.8-99.27-13.65,0-24.69,44.43-24.65,99.25,0,.5,0,.99,0,1.49h49.43s0,1.31,0,1.31Z"/>
    <path class="cls-6" d="M127.96,246.38c13.42,0,24.31-42.94,24.64-96.47v-1.32s-49.43,0-49.43,0c.24,54.13,11.26,97.78,24.79,97.78Z"/>
    <path class="cls-5" d="M127.96,246.38c13.42,0,24.31-42.94,24.64-96.47v-1.32s-49.43,0-49.43,0c.24,54.13,11.26,97.78,24.79,97.78Z"/>
    <path class="cls-4" d="M103.42,414.55l12.16,22c.07.13.2.2.35.2h24.29c.14,0,.28-.08.35-.2l12.16-22c.03-.06.05-.13.05-.19h-49.39c0,.07.02.14.05.19Z"/>
    <path class="cls-8" d="M147.15,404.1h-38.17l-5.56,10.07c-.03.06-.05.13-.05.19h49.39c0-.07-.02-.14-.05-.19l-5.56-10.07Z"/>
    <path class="cls-11" d="M147.15,404.1h-38.17l-5.56,10.07c-.03.06-.05.13-.05.19h49.39c0-.07-.02-.14-.05-.19l-5.56-10.07Z"/>
    <path class="cls-13" d="M140.56,392.17c-.07-.13-.2-.2-.35-.2h-24.29c-.14,0-.28.08-.35.2l-6.59,11.93h38.17l-6.59-11.93Z"/>
    <path class="cls-9" d="M140.56,392.17c-.07-.13-.2-.2-.35-.2h-24.29c-.14,0-.28.08-.35.2l-6.59,11.93h38.17l-6.59-11.93Z"/>
    <path class="cls-10" d="M140.56,392.17c-.07-.13-.2-.2-.35-.2h-24.29c-.14,0-.28.08-.35.2l-6.59,11.93h38.17l-6.59-11.93Z"/>
  </g>
</svg>