<?xml version="1.0" encoding="UTF-8" standalone="no"?>
<!-- Created with Inkscape (http://www.inkscape.org/) -->

<svg
   width="51.193943mm"
   height="15.038147mm"
   viewBox="0 0 51.193943 15.038147"
   version="1.1"
   id="svg5"
   xml:space="preserve"
   xmlns:inkscape="http://www.inkscape.org/namespaces/inkscape"
   xmlns:sodipodi="http://sodipodi.sourceforge.net/DTD/sodipodi-0.dtd"
   xmlns="http://www.w3.org/2000/svg"
   xmlns:svg="http://www.w3.org/2000/svg"><sodipodi:namedview
     id="namedview7"
     pagecolor="#505050"
     bordercolor="#eeeeee"
     borderopacity="1"
     inkscape:showpageshadow="0"
     inkscape:pageopacity="0"
     inkscape:pagecheckerboard="0"
     inkscape:deskcolor="#505050"
     inkscape:document-units="mm"
     showgrid="false" /><defs
     id="defs2" /><g
     inkscape:label="Layer 1"
     inkscape:groupmode="layer"
     id="layer1"
     transform="translate(-63.338331,-65.34358)"><g
       id="g632"
       transform="matrix(0.26458333,0,0,0.26458333,49.462598,51.091588)"
       style="fill:#ffffff"><g
         id="g787"
         inkscape:export-filename="jpl-white.svg"
         inkscape:export-xdpi="96"
         inkscape:export-ydpi="96"
         style="fill:#000000"><path
           d="m 56.21484,103.62525 3.77113,-7.077652 14.526089,-0.279553 c 11.730909,-0.225769 14.687581,-0.535517 15.365332,-1.609751 0.461669,-0.731738 0.845352,-10.207195 0.852822,-21.06134 l 0.01358,-19.731151 h 9.311327 9.31133 v 23.368883 c 0,22.774554 -0.0507,23.443444 -1.99528,26.300564 -1.09741,1.61243 -3.12105,3.76649 -4.49699,4.78681 -2.37038,1.75775 -3.759567,1.86891 -26.466083,2.11798 l -23.964386,0.26285 z"
           id="path3203"
           style="fill:#000000;fill-opacity:1" /><path
           d="M 115.57401,82.243188 V 53.865803 h 27.74608 c 27.01227,0 27.85055,0.05276 31.69571,1.995285 11.70563,5.91351 14.35457,27.487993 4.47131,36.416928 -4.29873,3.883641 -7.00473,4.333422 -23.93582,3.97851 l -12.78693,-0.268042 -3.84045,-6.504718 c -2.11225,-3.577599 -3.84045,-6.670281 -3.84045,-6.872648 0,-0.202357 6.38491,-0.36793 14.18869,-0.36793 13.0063,0 14.33649,-0.147793 15.96227,-1.773587 2.41878,-2.418755 2.40685,-8.234682 -0.0218,-10.663378 -1.67733,-1.677334 -2.74205,-1.779422 -16.18398,-1.551889 l -14.38853,0.243558 -0.23775,21.06134 -0.23775,21.061338 h -9.29528 -9.29528 V 82.243188 Z"
           id="path3201"
           style="fill:#000000;fill-opacity:1" /><path
           d="m 195.56107,109.13714 c -5.28652,-2.60535 -5.49643,-3.78313 -5.49643,-30.840484 V 53.865803 h 8.4082 8.40819 l 0.23804,20.617944 0.23804,20.617943 15.74097,0.242166 15.74098,0.242165 3.54678,7.054189 c 1.95073,3.87981 3.54678,7.26259 3.54678,7.51729 0,0.25469 -10.67477,0.45399 -23.72172,0.44288 -20.09158,-0.0171 -24.16981,-0.24102 -26.64983,-1.46324 z"
           id="path1873"
           style="fill:#000000;fill-opacity:1" /></g></g></g></svg>
