<?xml version="1.0" encoding="UTF-8" standalone="no"?>
<!-- Created with Inkscape (http://www.inkscape.org/) -->

<svg
   width="211.66637mm"
   height="211.66566mm"
   viewBox="0 0 211.66637 211.66566"
   version="1.1"
   id="svg5"
   xml:space="preserve"
   xmlns:inkscape="http://www.inkscape.org/namespaces/inkscape"
   xmlns:sodipodi="http://sodipodi.sourceforge.net/DTD/sodipodi-0.dtd"
   xmlns="http://www.w3.org/2000/svg"
   xmlns:svg="http://www.w3.org/2000/svg"><sodipodi:namedview
     id="namedview7"
     pagecolor="#505050"
     bordercolor="#eeeeee"
     borderopacity="1"
     inkscape:showpageshadow="0"
     inkscape:pageopacity="0"
     inkscape:pagecheckerboard="0"
     inkscape:deskcolor="#505050"
     inkscape:document-units="mm"
     showgrid="false" /><defs
     id="defs2" /><g
     inkscape:label="Layer 1"
     inkscape:groupmode="layer"
     id="layer1"
     transform="translate(31.706189,60.008875)"><g
       style="fill:#ffffff"
       id="g154"
       transform="matrix(3.3072917,0,0,3.3072917,-31.70634,-60.009373)"><g
         id="Rocket_1_"
         style="fill:#ffffff">
	<path
   d="m 63.999954,8.8992481 c 0,-2.7851996 -0.793999,-4.9892998 -2.359398,-6.5497999 -6.284202,-6.2607996 -22.806602,0.3965004 -37.621101,15.1610998 -0.5383,0.5366 -1.030298,1.1086 -1.503399,1.694801 -0.1553,-0.0642 -0.333999,-0.121601 -0.539499,-0.169401 -4.266602,-0.997099 -17.9600012,1.329101 -21.9463007,17.2549 -0.1025887,0.408199 0.0615,0.835899 0.4101,1.0713 0.169,0.1152 0.3643113,0.171799 0.5596,0.171799 0.206,0 0.4121,-0.0634 0.5869,-0.190399 5.4105997,-3.924801 9.7511997,-5.503399 13.5403007,-4.922299 -0.261489,0.474098 -0.526901,0.936501 -0.801001,1.378399 -0.245199,0.3955 -0.185599,0.9072 0.143512,1.235302 l 1.569088,1.563999 -2.9372,2.9263 c -0.188499,0.1875 -0.293999,0.442299 -0.293999,0.708001 0,0.265598 0.1055,0.5205 0.293999,0.708 l 9.829112,9.796798 c 0.195288,0.194401 0.450089,0.292 0.706,0.292 0.255888,0 0.510788,-0.0976 0.706089,-0.292 l 2.941099,-2.931598 1.5735,1.568397 c 0.193401,0.192303 0.448312,0.292 0.7061,0.292 0.180599,0 0.362301,-0.0489 0.524401,-0.148498 0.413299,-0.254902 0.842298,-0.502499 1.283699,-0.746102 0.650902,3.8079 -0.9258,8.176102 -4.913599,13.637703 -0.248001,0.339897 -0.2568,0.798798 -0.0225,1.147499 0.188499,0.281201 0.502001,0.442398 0.830101,0.442398 0.08011,0 0.161112,-0.0098 0.241199,-0.0293 15.940499,-3.963898 18.295914,-17.609398 17.3135,-21.8653 -0.0601,-0.2597 -0.138699,-0.464199 -0.2239,-0.6455 0.635498,-0.502197 1.2547,-1.026798 1.833313,-1.6035 C 57.103455,29.218548 63.999954,17.066248 63.999954,8.8992481 Z M 16.057556,30.548649 c -3.901399,-0.8223 -8.1884993,0.3213 -13.2792995,3.5625 2.5039001,-6.9482 7.0644999,-10.230501 10.6426005,-11.7764 2.6826,-1.158201 5.123998,-1.482401 6.686498,-1.482401 0.419001,0 0.773401,0.0234 1.053702,0.0596 z m 7.579111,18.069298 -8.412111,-8.384697 2.230499,-2.221703 7.2675,7.242302 1.1446,1.140499 z m 17.896486,1.955101 c -1.546897,3.583 -4.841796,8.148399 -11.836898,10.651401 3.246101,-5.069401 4.393501,-9.338901 3.570301,-13.2295 l 9.673797,-5.089901 c 0.173802,1.314499 0.0469,4.298901 -1.4072,7.668 z m -6.843799,-5.708 c -1.758686,0.846702 -3.433598,1.651401 -4.970686,2.543899 L 16.436457,34.17165 c 0.717298,-1.228203 1.380399,-2.562102 2.052,-3.939902 l 4.060798,-7.6671 c 0.849901,-1.3156 1.7915,-2.5507 2.8823,-3.6381 13.552801,-13.5077996 29.485399,-20.4501995 34.7969,-15.1610994 1.1758,1.1718998 1.771499,2.8993998 1.771499,5.1337996 0,7.5449008 -6.825199,19.4169998 -16.982399,29.5410018 -2.829101,2.819298 -6.641601,4.652298 -10.328201,6.424798 z"
   id="path132"
   style="fill:#ffffff" />
	<path
   d="m 42.724556,12.853349 c -1.139599,1.133799 -1.767601,2.6426 -1.767601,4.248 0,1.606498 0.628002,3.115299 1.767601,4.249099 1.174801,1.1689 2.7178,1.753901 4.2607,1.753901 1.542999,0 3.085999,-0.585001 4.2598,-1.753901 1.139698,-1.1338 1.766613,-2.642601 1.766613,-4.249099 0,-1.6054 -0.626915,-3.114201 -1.766613,-4.248 -2.347603,-2.3379 -6.170902,-2.3379 -8.5205,0 z m 7.110397,7.0791 c -1.572284,1.5644 -4.127998,1.5644 -5.700199,0 -0.7588,-0.755901 -1.177799,-1.760801 -1.177799,-2.8311 0,-1.0693 0.418999,-2.074201 1.177799,-2.8301 0.786103,-0.7822 1.818302,-1.1728 2.850502,-1.1728 1.032299,0 2.0635,0.3906 2.849697,1.1728 0.758713,0.755899 1.176716,1.7608 1.176716,2.8301 0,1.070299 -0.418003,2.075199 -1.176716,2.8311 z"
   id="path134"
   style="fill:#ffffff" />
	<path
   d="m 16.464756,47.147247 c -0.389601,-0.391597 -1.0224,-0.391597 -1.414,-0.0019 L 5.0556678,57.10725 c -0.3907118,0.389599 -0.3926115,1.0224 -0.002,1.413998 0.1952887,0.1963 0.4511886,0.294002 0.7080002,0.294002 0.2548885,0 0.5107884,-0.0977 0.7060885,-0.292003 l 9.9950995,-9.961899 c 0.3906,-0.389698 0.392599,-1.022499 0.0019,-1.414101 z"
   id="path136"
   style="fill:#ffffff" />
	<path
   d="m 5.7245564,51.97345 c 0.2549,0 0.5106997,-0.0977 0.7061114,-0.292 l 6.5820002,-6.560501 c 0.390588,-0.389702 0.391588,-1.022499 0.0019,-1.414101 -0.3896,-0.391597 -1.0224,-0.392601 -1.414,-0.002 L 5.0184564,50.26545 c -0.3906002,0.389598 -0.3916001,1.022499 -0.0019,1.4141 0.1953002,0.196198 0.4512001,0.2939 0.708,0.2939 z"
   id="path138"
   style="fill:#ffffff" />
	<path
   d="m 18.501856,50.583748 -6.582,6.5606 c -0.3906,0.389599 -0.3916,1.022499 -0.0019,1.414101 0.195301,0.196201 0.4511,0.293899 0.708001,0.293899 0.254799,0 0.51071,-0.0977 0.705999,-0.292 l 6.582101,-6.560501 c 0.390611,-0.389698 0.391611,-1.022499 0.0019,-1.4141 -0.389601,-0.391598 -1.022501,-0.392597 -1.414101,-0.002 z"
   id="path140"
   style="fill:#ffffff" />
</g></g></g></svg>
