<?xml version="1.0" encoding="UTF-8" standalone="no"?>
<!-- Created with Inkscape (http://www.inkscape.org/) -->

<svg
   width="210mm"
   height="297mm"
   viewBox="0 0 210 297"
   version="1.1"
   id="svg5"
   xml:space="preserve"
   inkscape:export-filename="spaceport.svg"
   inkscape:export-xdpi="96"
   inkscape:export-ydpi="96"
   xmlns:inkscape="http://www.inkscape.org/namespaces/inkscape"
   xmlns:sodipodi="http://sodipodi.sourceforge.net/DTD/sodipodi-0.dtd"
   xmlns="http://www.w3.org/2000/svg"
   xmlns:svg="http://www.w3.org/2000/svg"><sodipodi:namedview
     id="namedview7"
     pagecolor="#505050"
     bordercolor="#eeeeee"
     borderopacity="1"
     inkscape:showpageshadow="0"
     inkscape:pageopacity="0"
     inkscape:pagecheckerboard="0"
     inkscape:deskcolor="#505050"
     inkscape:document-units="mm"
     showgrid="false" /><defs
     id="defs2" /><g
     inkscape:label="Layer 1"
     inkscape:groupmode="layer"
     id="layer1"><g
       id="g632"
       transform="matrix(0.26458333,0,0,0.26458333,49.462598,51.091588)"
       style="fill:#ffffff"><g
         id="g975"
         transform="matrix(1.3333334,0,0,1.3333334,-727.41956,-246.41228)"><path
           d="m 351.4011,44.3469 h 1.0398 c 27.7404,20.4701 56.58,39.42 86.0303,57.3199 24.3454,14.4213 48.5569,28.1447 73.95,40.6301 31.4898,15.09 64.1899,28.2 98.46,35.3801 -23.5001,1.4599 -47.0101,2.92 -70.4603,5.0701 -18.0198,1.4898 -35.8897,4.2397 -53.82,6.5298 -19.3399,2.5801 -38.3998,6.7601 -57.3298,11.3701 -34.34,-47.34 -59.9499,-100.73 -77.87,-156.3001 z"
           style="fill:#ffffff"
           id="path929" /><path
           d="m 651.3511,192.2669 c 114.3099,-4.93 228.7999,-5.3798 343.1699,-2.33 27.61,0.78 55.22,1.83 82.8102,3.2201 2.48,0.1298 4.9498,0.3799 7.4199,0.7501 -21.9999,1.0499 -43.9001,3.6 -65.77,6.1299 -49.46,6.0599 -98.6601,14.2299 -147.42,24.5199 -24.87,5.3102 -49.6499,11.16 -74.08,18.26 -17.54,5.2401 -35.18,10.6702 -51.5002,19.1001 -6.1798,3.3698 -13.4277,7.6017 -14.3898,15.3099 -1.5876,12.7214 3.5099,25.0402 8.3399,36.5301 14.43,31.46 34.8001,59.7699 56.2901,86.7399 33.1288,40.9552 72.9689,80.0087 115.5398,110.8397 -3.6498,-0.4396 -7.0698,-1.8397 -10.5599,-2.8998 -79.8998,-25.2 -157.6099,-57.8699 -230.4198,-99.4399 -47.9101,-27.37 -93.6502,-58.6401 -135.83,-94.2299 -29.1829,-25.5393 -74.5214,-66.551 -94.8101,-99.8901 25.4095,-8.3721 69.3499,-12.3247 96.3028,-14.9244 38.2111,-3.6865 76.5695,-5.8873 114.9072,-7.6856 z"
           style="fill:#ffffff;fill-rule:evenodd"
           id="path931" /><path
           d="m 758.1611,313.937 c 41.1324,15.6781 80.3866,34.4889 122.55,49.18 22.57,8.1 44.9399,16.7199 67.75,24.12 57.5201,19.1698 115.92,35.7701 175.1598,48.7298 -49.8197,-2.9597 -99.54,-7.3499 -149.1698,-12.6096 -52.1881,-6.2136 -102.6774,-10.7329 -154.7699,-20.1002 -13.3302,-15.6101 -25.7902,-31.9799 -37.44,-48.8801 -8.8101,-12.99 -17.2701,-26.2899 -24.0801,-40.4399 z"
           style="fill:#ffffff"
           id="path945" /><g
           id="Layer1000"
           style="fill:#ffffff" /></g></g></g></svg>
