<?xml version="1.0" encoding="UTF-8" standalone="no"?>
<!-- Created with Inkscape (http://www.inkscape.org/) -->

<svg
   width="147.96397mm"
   height="26.109318mm"
   viewBox="0 0 147.96397 26.109318"
   version="1.1"
   id="svg5"
   xml:space="preserve"
   xmlns="http://www.w3.org/2000/svg"
   xmlns:svg="http://www.w3.org/2000/svg"><defs
     id="defs2"><rect
       x="182.34218"
       y="60.034035"
       width="416.63486"
       height="97.219292"
       id="rect366" /><clipPath
       id="_clipPath_cZDHUNVPeB6g3e3JtjseAt7nTwBPWBxr"><rect
         width="1000"
         height="1000"
         id="rect132"
         x="0"
         y="0" /></clipPath></defs><g
     id="layer1"
     transform="translate(-21.425242,-12.759661)"><g
       id="g1225"><g
         style="isolation:isolate"
         id="g152"
         transform="matrix(0.02610932,0,0,0.02610932,21.425243,12.759662)"><g
           clip-path="url(#_clipPath_cZDHUNVPeB6g3e3JtjseAt7nTwBPWBxr)"
           id="g141"><rect
             width="1000"
             height="1000"
             style="fill:#000000"
             fill-opacity="0"
             id="rect137"
             x="0"
             y="0" /><path
             d="M 170.027,523.165 Q 117.335,576.428 66.613,638.339 46.75,573.658 46.75,500.613 v 0 0 q 0,-91.999 34.96,-173.572 v 0 0 q 34.959,-81.572 97.519,-144.745 v 0 0 q 62.56,-63.173 144.132,-99.36 v 0 0 Q 404.934,46.75 499.387,46.75 v 0 0 q 93.226,0 174.798,36.186 v 0 0 q 81.573,36.187 144.746,99.36 v 0 0 q 7.269,7.268 14.172,14.781 v 0 q -75.512,4.816 -148.273,21.71 -26.467,-18.343 -56.644,-31.585 v 0 0 Q 568.08,160.829 499.387,160.829 v 0 0 q -69.92,0 -130.026,26.987 v 0 0 q -60.106,26.986 -105.493,73.599 v 0 0 q -45.386,46.613 -69.919,108.559 v 0 0 Q 169.416,431.92 169.416,501.84 v 0 0 q 0,10.772 0.611,21.325 z M 401.894,824.15 q -25.253,51.181 -47.36,106.469 68.183,22.631 144.853,22.631 v 0 0 q 93.226,0 174.798,-34.96 v 0 0 q 81.573,-34.959 144.746,-96.906 v 0 0 q 63.173,-61.946 98.746,-144.132 v 0 0 Q 953.25,595.066 953.25,500.613 v 0 0 q 0,-91.999 -35.573,-173.572 v 0 0 q -3.982,-9.131 -8.31,-18.032 v 0 q -54.84,26.029 -105.445,57.588 0.454,1.073 0.902,2.151 v 0 0 q 25.76,61.946 25.76,131.865 v 0 0 q 0,71.146 -25.76,131.866 v 0 0 q -25.76,60.72 -69.919,107.333 v 0 0 q -44.16,46.612 -104.266,72.986 v 0 0 q -60.106,26.373 -128.799,26.373 v 0 0 q -52.767,0 -99.946,-15.021 z"
             fill-rule="evenodd"
             fill="#000000"
             id="path139" /></g></g><text
         xml:space="preserve"
         transform="matrix(0.32217908,0,0,0.32217908,-5.5819592,-5.2290629)"
         id="text364"
         style="font-style:normal;font-variant:normal;font-weight:bold;font-stretch:normal;font-size:56px;font-family:monospace;-inkscape-font-specification:'monospace Bold';white-space:pre;shape-inside:url(#rect366);fill:#ffffff;stroke:#000000;stroke-width:1.00157"><tspan
           x="182.3418"
           y="111.50244"
           id="tspan1368"><tspan
             style="font-weight:600;font-family:Montserrat;-inkscape-font-specification:'Montserrat Semi-Bold';fill:#000000"
             id="tspan1366">nyuad.space</tspan></tspan></text></g></g></svg>
