<?xml version="1.0" encoding="UTF-8" standalone="no"?>
<!-- Generator: Gravit.io -->
<svg xmlns="http://www.w3.org/2000/svg" xmlns:xlink="http://www.w3.org/1999/xlink" style="isolation:isolate" viewBox="0 0 1000 1000" width="1000pt" height="1000pt"><defs><clipPath id="_clipPath_cZDHUNVPeB6g3e3JtjseAt7nTwBPWBxr"><rect width="1000" height="1000"/></clipPath></defs><g clip-path="url(#_clipPath_cZDHUNVPeB6g3e3JtjseAt7nTwBPWBxr)"><rect width="1000" height="1000" style="fill:rgb(0,0,0)" fill-opacity="0"/><path d=" M 170.027 523.165 Q 117.335 576.428 66.613 638.339 Q 46.75 573.658 46.75 500.613 L 46.75 500.613 L 46.75 500.613 Q 46.75 408.614 81.71 327.041 L 81.71 327.041 L 81.71 327.041 Q 116.669 245.469 179.229 182.296 L 179.229 182.296 L 179.229 182.296 Q 241.789 119.123 323.361 82.936 L 323.361 82.936 L 323.361 82.936 Q 404.934 46.75 499.387 46.75 L 499.387 46.75 L 499.387 46.75 Q 592.613 46.75 674.185 82.936 L 674.185 82.936 L 674.185 82.936 Q 755.758 119.123 818.931 182.296 L 818.931 182.296 L 818.931 182.296 Q 826.2 189.564 833.103 197.077 L 833.103 197.077 Q 757.591 201.893 684.83 218.787 Q 658.363 200.444 628.186 187.202 L 628.186 187.202 L 628.186 187.202 Q 568.08 160.829 499.387 160.829 L 499.387 160.829 L 499.387 160.829 Q 429.467 160.829 369.361 187.816 L 369.361 187.816 L 369.361 187.816 Q 309.255 214.802 263.868 261.415 L 263.868 261.415 L 263.868 261.415 Q 218.482 308.028 193.949 369.974 L 193.949 369.974 L 193.949 369.974 Q 169.416 431.92 169.416 501.84 L 169.416 501.84 L 169.416 501.84 Q 169.416 512.612 170.027 523.165 Z  M 401.894 824.15 Q 376.641 875.331 354.534 930.619 Q 422.717 953.25 499.387 953.25 L 499.387 953.25 L 499.387 953.25 Q 592.613 953.25 674.185 918.29 L 674.185 918.29 L 674.185 918.29 Q 755.758 883.331 818.931 821.384 L 818.931 821.384 L 818.931 821.384 Q 882.104 759.438 917.677 677.252 L 917.677 677.252 L 917.677 677.252 Q 953.25 595.066 953.25 500.613 L 953.25 500.613 L 953.25 500.613 Q 953.25 408.614 917.677 327.041 L 917.677 327.041 L 917.677 327.041 Q 913.695 317.91 909.367 309.009 L 909.367 309.009 Q 854.527 335.038 803.922 366.597 Q 804.376 367.67 804.824 368.748 L 804.824 368.748 L 804.824 368.748 Q 830.584 430.694 830.584 500.613 L 830.584 500.613 L 830.584 500.613 Q 830.584 571.759 804.824 632.479 L 804.824 632.479 L 804.824 632.479 Q 779.064 693.199 734.905 739.812 L 734.905 739.812 L 734.905 739.812 Q 690.745 786.424 630.639 812.798 L 630.639 812.798 L 630.639 812.798 Q 570.533 839.171 501.84 839.171 L 501.84 839.171 L 501.84 839.171 Q 449.073 839.171 401.894 824.15 Z " fill-rule="evenodd" fill="rgb(0,0,0)"/></g></svg>